<mxfile host="65bd71144e">
    <diagram id="8LUtqMyP6PqjKQgSo8ol" name="Page-1">
        <mxGraphModel dx="2018" dy="1975" grid="1" gridSize="10" guides="1" tooltips="1" connect="1" arrows="1" fold="1" page="1" pageScale="2" pageWidth="1700" pageHeight="1100" math="0" shadow="0">
            <root>
                <mxCell id="0"/>
                <mxCell id="1" parent="0"/>
                <mxCell id="37" value="" style="endArrow=classic;html=1;exitX=0.044;exitY=0;exitDx=0;exitDy=0;exitPerimeter=0;entryX=-0.012;entryY=0.777;entryDx=0;entryDy=0;entryPerimeter=0;rounded=0;" edge="1" parent="1" target="90">
                    <mxGeometry relative="1" as="geometry">
                        <mxPoint x="810" y="1200" as="sourcePoint"/>
                        <mxPoint x="140" y="1630" as="targetPoint"/>
                        <Array as="points">
                            <mxPoint x="830" y="1200"/>
                            <mxPoint x="830" y="1850"/>
                            <mxPoint x="140" y="1850"/>
                            <mxPoint x="140" y="1700"/>
                        </Array>
                    </mxGeometry>
                </mxCell>
                <object label="JumpEq" id="38">
                    <mxCell style="edgeLabel;resizable=0;align=center;verticalAlign=middle;html=1;rounded=0;" connectable="0" vertex="1" parent="37">
                        <mxGeometry relative="1" as="geometry"/>
                    </mxCell>
                </object>
                <mxCell id="39" value="&lt;font style=&quot;font-size: 30px&quot;&gt;Control&lt;/font&gt;" style="rounded=0;whiteSpace=wrap;html=1;rotation=90;" vertex="1" parent="1">
                    <mxGeometry x="370" y="830" width="680" height="200" as="geometry"/>
                </mxCell>
                <mxCell id="40" value="" style="endArrow=classic;html=1;exitX=0.853;exitY=0;exitDx=0;exitDy=0;exitPerimeter=0;entryX=0;entryY=0.5;entryDx=0;entryDy=0;rounded=0;" edge="1" parent="1" source="39" target="90">
                    <mxGeometry relative="1" as="geometry">
                        <mxPoint x="830" y="1170" as="sourcePoint"/>
                        <mxPoint x="130" y="1570" as="targetPoint"/>
                        <Array as="points">
                            <mxPoint x="870" y="1170"/>
                            <mxPoint x="870" y="1890"/>
                            <mxPoint x="120" y="1890"/>
                            <mxPoint x="120" y="1640"/>
                        </Array>
                    </mxGeometry>
                </mxCell>
                <object label="JumpNotEq" id="41">
                    <mxCell style="edgeLabel;resizable=0;align=center;verticalAlign=middle;html=1;rounded=0;" connectable="0" vertex="1" parent="40">
                        <mxGeometry relative="1" as="geometry">
                            <mxPoint as="offset"/>
                        </mxGeometry>
                    </mxCell>
                </object>
                <mxCell id="44" value="" style="endArrow=classic;html=1;exitX=0.076;exitY=-0.005;exitDx=0;exitDy=0;exitPerimeter=0;rounded=0;entryX=-0.003;entryY=0.182;entryDx=0;entryDy=0;entryPerimeter=0;" edge="1" parent="1" source="39" target="112">
                    <mxGeometry relative="1" as="geometry">
                        <mxPoint x="830" y="680" as="sourcePoint"/>
                        <mxPoint x="1000" y="410" as="targetPoint"/>
                        <Array as="points">
                            <mxPoint x="1000" y="640"/>
                            <mxPoint x="1000" y="460"/>
                        </Array>
                    </mxGeometry>
                </mxCell>
                <object label="MemWrEn" id="45">
                    <mxCell style="edgeLabel;resizable=0;align=center;verticalAlign=middle;html=1;rounded=0;" connectable="0" vertex="1" parent="44">
                        <mxGeometry relative="1" as="geometry"/>
                    </mxCell>
                </object>
                <mxCell id="46" value="" style="endArrow=classic;html=1;exitX=0.16;exitY=-0.01;exitDx=0;exitDy=0;exitPerimeter=0;rounded=0;" edge="1" parent="1" source="39">
                    <mxGeometry relative="1" as="geometry">
                        <mxPoint x="830" y="700" as="sourcePoint"/>
                        <mxPoint x="1030" y="700.0799999999999" as="targetPoint"/>
                    </mxGeometry>
                </mxCell>
                <object label="LoadInst" id="47">
                    <mxCell style="edgeLabel;resizable=0;align=center;verticalAlign=middle;html=1;rounded=0;" connectable="0" vertex="1" parent="46">
                        <mxGeometry relative="1" as="geometry"/>
                    </mxCell>
                </object>
                <mxCell id="48" value="" style="endArrow=classic;html=1;exitX=0.191;exitY=-0.01;exitDx=0;exitDy=0;exitPerimeter=0;rounded=0;" edge="1" parent="1" source="39">
                    <mxGeometry relative="1" as="geometry">
                        <mxPoint x="830" y="720" as="sourcePoint"/>
                        <mxPoint x="1030" y="720.0799999999999" as="targetPoint"/>
                    </mxGeometry>
                </mxCell>
                <object label="StoreInst" id="49">
                    <mxCell style="edgeLabel;resizable=0;align=center;verticalAlign=middle;html=1;rounded=0;" connectable="0" vertex="1" parent="48">
                        <mxGeometry relative="1" as="geometry"/>
                    </mxCell>
                </object>
                <mxCell id="52" value="" style="endArrow=classic;html=1;exitX=0.75;exitY=0;exitDx=0;exitDy=0;entryX=0;entryY=0.5;entryDx=0;entryDy=0;rounded=0;" edge="1" parent="1" target="68">
                    <mxGeometry relative="1" as="geometry">
                        <mxPoint x="810" y="1070" as="sourcePoint"/>
                        <mxPoint x="1105" y="1085" as="targetPoint"/>
                        <Array as="points">
                            <mxPoint x="1440" y="1070"/>
                        </Array>
                    </mxGeometry>
                </mxCell>
                <mxCell id="53" value="WriteSource" style="edgeLabel;resizable=0;html=1;align=center;verticalAlign=middle;rounded=0;" connectable="0" vertex="1" parent="52">
                    <mxGeometry relative="1" as="geometry"/>
                </mxCell>
                <mxCell id="54" value="2'b" style="edgeLabel;resizable=0;html=1;align=left;verticalAlign=bottom;rounded=0;" connectable="0" vertex="1" parent="52">
                    <mxGeometry x="-1" relative="1" as="geometry"/>
                </mxCell>
                <mxCell id="55" value="" style="endArrow=classic;html=1;exitX=0.545;exitY=0.005;exitDx=0;exitDy=0;exitPerimeter=0;entryX=0.003;entryY=0.21;entryDx=0;entryDy=0;entryPerimeter=0;rounded=0;" edge="1" parent="1" source="39" target="67">
                    <mxGeometry relative="1" as="geometry">
                        <mxPoint x="830" y="820" as="sourcePoint"/>
                        <mxPoint x="990" y="820" as="targetPoint"/>
                    </mxGeometry>
                </mxCell>
                <mxCell id="56" value="ReadRegAddrA" style="edgeLabel;resizable=0;html=1;align=center;verticalAlign=middle;rounded=0;" connectable="0" vertex="1" parent="55">
                    <mxGeometry relative="1" as="geometry"/>
                </mxCell>
                <mxCell id="57" value="3'b" style="edgeLabel;resizable=0;html=1;align=left;verticalAlign=bottom;rounded=0;" connectable="0" vertex="1" parent="55">
                    <mxGeometry x="-1" relative="1" as="geometry"/>
                </mxCell>
                <mxCell id="58" value="" style="endArrow=classic;html=1;exitX=0.594;exitY=0.002;exitDx=0;exitDy=0;exitPerimeter=0;entryX=-0.001;entryY=0.267;entryDx=0;entryDy=0;entryPerimeter=0;rounded=0;" edge="1" parent="1" source="39" target="67">
                    <mxGeometry relative="1" as="geometry">
                        <mxPoint x="859.9999999999998" y="961.1200000000001" as="sourcePoint"/>
                        <mxPoint x="1038.6" y="960" as="targetPoint"/>
                    </mxGeometry>
                </mxCell>
                <mxCell id="59" value="ReadRegAddrB" style="edgeLabel;resizable=0;html=1;align=center;verticalAlign=middle;rounded=0;" connectable="0" vertex="1" parent="58">
                    <mxGeometry relative="1" as="geometry"/>
                </mxCell>
                <mxCell id="60" value="3'b" style="edgeLabel;resizable=0;html=1;align=left;verticalAlign=bottom;rounded=0;" connectable="0" vertex="1" parent="58">
                    <mxGeometry x="-1" relative="1" as="geometry"/>
                </mxCell>
                <mxCell id="61" value="" style="endArrow=classic;html=1;exitX=0.65;exitY=0.006;exitDx=0;exitDy=0;exitPerimeter=0;entryX=-0.005;entryY=0.321;entryDx=0;entryDy=0;entryPerimeter=0;rounded=0;" edge="1" parent="1" source="39" target="67">
                    <mxGeometry relative="1" as="geometry">
                        <mxPoint x="810.6000000000001" y="1020.3600000000001" as="sourcePoint"/>
                        <mxPoint x="1220" y="1032" as="targetPoint"/>
                    </mxGeometry>
                </mxCell>
                <mxCell id="62" value="WriteRegAddr" style="edgeLabel;resizable=0;html=1;align=center;verticalAlign=middle;rounded=0;" connectable="0" vertex="1" parent="61">
                    <mxGeometry relative="1" as="geometry">
                        <mxPoint as="offset"/>
                    </mxGeometry>
                </mxCell>
                <mxCell id="63" value="3'b" style="edgeLabel;resizable=0;html=1;align=left;verticalAlign=bottom;rounded=0;" connectable="0" vertex="1" parent="61">
                    <mxGeometry x="-1" relative="1" as="geometry"/>
                </mxCell>
                <mxCell id="64" value="" style="endArrow=classic;html=1;exitX=0.97;exitY=-0.005;exitDx=0;exitDy=0;exitPerimeter=0;rounded=0;" edge="1" parent="1">
                    <mxGeometry relative="1" as="geometry">
                        <mxPoint x="811" y="779.9999999999999" as="sourcePoint"/>
                        <mxPoint x="1010" y="780.4" as="targetPoint"/>
                        <Array as="points">
                            <mxPoint x="850" y="780.4"/>
                        </Array>
                    </mxGeometry>
                </mxCell>
                <mxCell id="65" value="ALUOp" style="edgeLabel;resizable=0;html=1;align=center;verticalAlign=middle;rounded=0;" connectable="0" vertex="1" parent="64">
                    <mxGeometry relative="1" as="geometry"/>
                </mxCell>
                <mxCell id="66" value="3'b" style="edgeLabel;resizable=0;html=1;align=left;verticalAlign=bottom;rounded=0;" connectable="0" vertex="1" parent="64">
                    <mxGeometry x="-1" relative="1" as="geometry"/>
                </mxCell>
                <mxCell id="67" value="&lt;font style=&quot;font-size: 30px&quot;&gt;Reg FIle&lt;/font&gt;" style="rounded=0;whiteSpace=wrap;html=1;" vertex="1" parent="1">
                    <mxGeometry x="1540" y="830" width="240" height="600" as="geometry"/>
                </mxCell>
                <mxCell id="69" style="edgeStyle=none;html=1;fontSize=30;entryX=0.004;entryY=0.639;entryDx=0;entryDy=0;entryPerimeter=0;rounded=0;" edge="1" parent="1" source="68" target="67">
                    <mxGeometry relative="1" as="geometry">
                        <mxPoint x="1160" y="1170" as="targetPoint"/>
                    </mxGeometry>
                </mxCell>
                <mxCell id="68" value="" style="shape=trapezoid;perimeter=trapezoidPerimeter;whiteSpace=wrap;html=1;fixedSize=1;fontSize=30;rotation=90;rounded=0;" vertex="1" parent="1">
                    <mxGeometry x="1350" y="1190" width="180" height="40" as="geometry"/>
                </mxCell>
                <mxCell id="71" value="" style="endArrow=classic;html=1;exitX=0.479;exitY=0.005;exitDx=0;exitDy=0;exitPerimeter=0;entryX=0.001;entryY=0.137;entryDx=0;entryDy=0;entryPerimeter=0;rounded=0;" edge="1" parent="1" source="39" target="67">
                    <mxGeometry relative="1" as="geometry">
                        <mxPoint x="822" y="729.8800000000001" as="sourcePoint"/>
                        <mxPoint x="1220" y="916" as="targetPoint"/>
                    </mxGeometry>
                </mxCell>
                <object label="RegWrEn" id="72">
                    <mxCell style="edgeLabel;resizable=0;align=center;verticalAlign=middle;html=1;rounded=0;" connectable="0" vertex="1" parent="71">
                        <mxGeometry relative="1" as="geometry"/>
                    </mxCell>
                </object>
                <mxCell id="73" value="LUT_LSW" style="rounded=0;whiteSpace=wrap;html=1;fontSize=30;" vertex="1" parent="1">
                    <mxGeometry x="1590" y="1580" width="190" height="70" as="geometry"/>
                </mxCell>
                <mxCell id="74" value="LUT_MSW" style="rounded=0;whiteSpace=wrap;html=1;fontSize=30;" vertex="1" parent="1">
                    <mxGeometry x="1590" y="1470" width="190" height="80" as="geometry"/>
                </mxCell>
                <mxCell id="80" value="" style="endArrow=classic;html=1;fontSize=30;exitX=0;exitY=0.5;exitDx=0;exitDy=0;entryX=0.812;entryY=1.007;entryDx=0;entryDy=0;entryPerimeter=0;rounded=0;" edge="1" parent="1" source="74" target="68">
                    <mxGeometry relative="1" as="geometry">
                        <mxPoint x="1180" y="1500" as="sourcePoint"/>
                        <mxPoint x="990" y="1190" as="targetPoint"/>
                        <Array as="points">
                            <mxPoint x="1330" y="1510"/>
                            <mxPoint x="1330" y="1266"/>
                        </Array>
                    </mxGeometry>
                </mxCell>
                <mxCell id="81" value="bFlip" style="edgeLabel;resizable=0;html=1;align=center;verticalAlign=middle;fontSize=11;rotation=0;rounded=0;" connectable="0" vertex="1" parent="80">
                    <mxGeometry relative="1" as="geometry">
                        <mxPoint y="-4" as="offset"/>
                    </mxGeometry>
                </mxCell>
                <mxCell id="82" value="&lt;font style=&quot;font-size: 11px&quot;&gt;8'b&lt;/font&gt;" style="edgeLabel;resizable=0;html=1;align=left;verticalAlign=bottom;fontSize=30;rounded=0;" connectable="0" vertex="1" parent="80">
                    <mxGeometry x="-1" relative="1" as="geometry">
                        <mxPoint x="-20" y="-10" as="offset"/>
                    </mxGeometry>
                </mxCell>
                <mxCell id="83" value="" style="endArrow=classic;html=1;fontSize=30;exitX=0;exitY=0.5;exitDx=0;exitDy=0;entryX=0.669;entryY=0.962;entryDx=0;entryDy=0;entryPerimeter=0;rounded=0;" edge="1" parent="1" source="73" target="68">
                    <mxGeometry relative="1" as="geometry">
                        <mxPoint x="1330" y="1840" as="sourcePoint"/>
                        <mxPoint x="976" y="1491" as="targetPoint"/>
                        <Array as="points">
                            <mxPoint x="1290" y="1615"/>
                            <mxPoint x="1290" y="1240"/>
                        </Array>
                    </mxGeometry>
                </mxCell>
                <mxCell id="84" value="bFlip" style="edgeLabel;resizable=0;html=1;align=center;verticalAlign=middle;fontSize=11;rounded=0;" connectable="0" vertex="1" parent="83">
                    <mxGeometry relative="1" as="geometry"/>
                </mxCell>
                <mxCell id="85" value="&lt;font style=&quot;font-size: 11px&quot;&gt;8'b&lt;/font&gt;" style="edgeLabel;resizable=0;html=1;align=left;verticalAlign=bottom;fontSize=30;rounded=0;" connectable="0" vertex="1" parent="83">
                    <mxGeometry x="-1" relative="1" as="geometry">
                        <mxPoint x="-20" y="-10" as="offset"/>
                    </mxGeometry>
                </mxCell>
                <mxCell id="90" value="&lt;font style=&quot;font-size: 30px&quot;&gt;Prog_Ctr&lt;/font&gt;" style="rounded=0;whiteSpace=wrap;html=1;fontSize=11;" vertex="1" parent="1">
                    <mxGeometry x="330" y="1530" width="200" height="220" as="geometry"/>
                </mxCell>
                <mxCell id="91" value="Inst_ROM" style="rounded=0;whiteSpace=wrap;html=1;fontSize=30;" vertex="1" parent="1">
                    <mxGeometry x="300" y="1180" width="200" height="70" as="geometry"/>
                </mxCell>
                <mxCell id="97" value="" style="endArrow=classic;html=1;fontSize=12;exitX=1;exitY=0.5;exitDx=0;exitDy=0;entryX=0.919;entryY=0.998;entryDx=0;entryDy=0;entryPerimeter=0;rounded=0;" edge="1" parent="1" source="91" target="39">
                    <mxGeometry relative="1" as="geometry">
                        <mxPoint x="330" y="870" as="sourcePoint"/>
                        <mxPoint x="490" y="870" as="targetPoint"/>
                    </mxGeometry>
                </mxCell>
                <mxCell id="98" value="InstOut" style="edgeLabel;resizable=0;html=1;align=center;verticalAlign=middle;fontSize=12;rounded=0;" connectable="0" vertex="1" parent="97">
                    <mxGeometry relative="1" as="geometry"/>
                </mxCell>
                <mxCell id="99" value="9'b" style="edgeLabel;resizable=0;html=1;align=left;verticalAlign=bottom;fontSize=12;rounded=0;" connectable="0" vertex="1" parent="97">
                    <mxGeometry x="-1" relative="1" as="geometry"/>
                </mxCell>
                <mxCell id="100" value="" style="endArrow=classic;html=1;fontSize=12;exitX=1;exitY=0.25;exitDx=0;exitDy=0;entryX=0;entryY=0.5;entryDx=0;entryDy=0;rounded=0;" edge="1" parent="1" source="90" target="91">
                    <mxGeometry relative="1" as="geometry">
                        <mxPoint x="560" y="1559.6000000000004" as="sourcePoint"/>
                        <mxPoint x="240" y="1190" as="targetPoint"/>
                        <Array as="points">
                            <mxPoint x="570" y="1585"/>
                            <mxPoint x="570" y="1400"/>
                            <mxPoint x="240" y="1400"/>
                            <mxPoint x="240" y="1215"/>
                        </Array>
                    </mxGeometry>
                </mxCell>
                <mxCell id="101" value="ProgCtr" style="edgeLabel;resizable=0;html=1;align=center;verticalAlign=middle;fontSize=12;rounded=0;" connectable="0" vertex="1" parent="100">
                    <mxGeometry relative="1" as="geometry"/>
                </mxCell>
                <mxCell id="102" value="10'b" style="edgeLabel;resizable=0;html=1;align=left;verticalAlign=bottom;fontSize=12;rounded=0;" connectable="0" vertex="1" parent="100">
                    <mxGeometry x="-1" relative="1" as="geometry"/>
                </mxCell>
                <mxCell id="105" value="" style="endArrow=classic;html=1;exitX=0.804;exitY=-0.007;exitDx=0;exitDy=0;exitPerimeter=0;entryX=0;entryY=0.25;entryDx=0;entryDy=0;rounded=0;" edge="1" parent="1" source="39" target="90">
                    <mxGeometry relative="1" as="geometry">
                        <mxPoint x="680" y="1380.0000000000005" as="sourcePoint"/>
                        <mxPoint x="150" y="1560" as="targetPoint"/>
                        <Array as="points">
                            <mxPoint x="900" y="1137"/>
                            <mxPoint x="900" y="1940"/>
                            <mxPoint x="100" y="1930"/>
                            <mxPoint x="100" y="1585"/>
                        </Array>
                    </mxGeometry>
                </mxCell>
                <mxCell id="106" value="PCRegSelect" style="edgeLabel;resizable=0;html=1;align=center;verticalAlign=middle;rounded=0;" connectable="0" vertex="1" parent="105">
                    <mxGeometry relative="1" as="geometry">
                        <mxPoint as="offset"/>
                    </mxGeometry>
                </mxCell>
                <mxCell id="107" value="2'b" style="edgeLabel;resizable=0;html=1;align=left;verticalAlign=bottom;rounded=0;" connectable="0" vertex="1" parent="105">
                    <mxGeometry x="-1" relative="1" as="geometry"/>
                </mxCell>
                <mxCell id="112" value="Data Memory" style="rounded=0;whiteSpace=wrap;html=1;fontSize=30;" vertex="1" parent="1">
                    <mxGeometry x="1200" y="430" width="270" height="170" as="geometry"/>
                </mxCell>
                <mxCell id="128" value="" style="endArrow=classic;html=1;fontSize=12;exitX=1.002;exitY=0.284;exitDx=0;exitDy=0;exitPerimeter=0;entryX=-0.006;entryY=0.771;entryDx=0;entryDy=0;entryPerimeter=0;" edge="1" parent="1" target="112">
                    <mxGeometry relative="1" as="geometry">
                        <mxPoint x="1780" y="1060.4" as="sourcePoint"/>
                        <mxPoint x="1210" y="550" as="targetPoint"/>
                        <Array as="points">
                            <mxPoint x="1920" y="1060"/>
                            <mxPoint x="1920" y="760"/>
                            <mxPoint x="1160" y="760"/>
                            <mxPoint x="1160" y="560"/>
                        </Array>
                    </mxGeometry>
                </mxCell>
                <mxCell id="129" value="DataOutB" style="edgeLabel;resizable=0;html=1;align=center;verticalAlign=middle;fontSize=12;" connectable="0" vertex="1" parent="128">
                    <mxGeometry relative="1" as="geometry"/>
                </mxCell>
                <mxCell id="130" value="8'b" style="edgeLabel;resizable=0;html=1;align=left;verticalAlign=bottom;fontSize=12;" connectable="0" vertex="1" parent="128">
                    <mxGeometry x="-1" relative="1" as="geometry"/>
                </mxCell>
                <mxCell id="133" value="" style="endArrow=classic;html=1;fontSize=12;exitX=1;exitY=0.217;exitDx=0;exitDy=0;exitPerimeter=0;rounded=0;entryX=0;entryY=0.5;entryDx=0;entryDy=0;" edge="1" parent="1" source="67" target="112">
                    <mxGeometry relative="1" as="geometry">
                        <mxPoint x="1820" y="950.4000000000001" as="sourcePoint"/>
                        <mxPoint x="1120" y="440" as="targetPoint"/>
                        <Array as="points">
                            <mxPoint x="1880" y="960"/>
                            <mxPoint x="1880" y="800"/>
                            <mxPoint x="1120" y="800"/>
                            <mxPoint x="1120" y="515"/>
                        </Array>
                    </mxGeometry>
                </mxCell>
                <mxCell id="134" value="DataOutA" style="edgeLabel;resizable=0;html=1;align=center;verticalAlign=middle;fontSize=12;" connectable="0" vertex="1" parent="133">
                    <mxGeometry relative="1" as="geometry"/>
                </mxCell>
                <mxCell id="135" value="8'b" style="edgeLabel;resizable=0;html=1;align=left;verticalAlign=bottom;fontSize=12;" connectable="0" vertex="1" parent="133">
                    <mxGeometry x="-1" relative="1" as="geometry"/>
                </mxCell>
                <mxCell id="139" value="" style="endArrow=classic;html=1;rounded=0;labelBackgroundColor=default;fontFamily=Helvetica;fontSize=12;fontColor=default;strokeColor=default;shape=connector;exitX=1;exitY=0.75;exitDx=0;exitDy=0;entryX=0.447;entryY=1.08;entryDx=0;entryDy=0;entryPerimeter=0;" edge="1" parent="1" source="112" target="68">
                    <mxGeometry relative="1" as="geometry">
                        <mxPoint x="1470" y="560" as="sourcePoint"/>
                        <mxPoint x="1320" y="1250" as="targetPoint"/>
                        <Array as="points">
                            <mxPoint x="1560" y="560"/>
                            <mxPoint x="1560" y="680"/>
                            <mxPoint x="1320" y="680"/>
                            <mxPoint x="1320" y="1200"/>
                        </Array>
                    </mxGeometry>
                </mxCell>
                <mxCell id="140" value="DataOut" style="edgeLabel;resizable=0;html=1;align=center;verticalAlign=middle;fontFamily=Helvetica;fontSize=12;fontColor=default;" connectable="0" vertex="1" parent="139">
                    <mxGeometry relative="1" as="geometry">
                        <mxPoint y="-53" as="offset"/>
                    </mxGeometry>
                </mxCell>
                <mxCell id="141" value="8'b" style="edgeLabel;resizable=0;html=1;align=left;verticalAlign=bottom;fontFamily=Helvetica;fontSize=12;fontColor=default;" connectable="0" vertex="1" parent="139">
                    <mxGeometry x="-1" relative="1" as="geometry"/>
                </mxCell>
            </root>
        </mxGraphModel>
    </diagram>
</mxfile>